<mxfile host="app.diagrams.net" modified="2024-05-14T13:25:35.119Z" agent="Mozilla/5.0 (Windows NT 10.0; Win64; x64) AppleWebKit/537.36 (KHTML, like Gecko) Chrome/122.0.0.0 Safari/537.36" etag="vH2TCEat81pGlgyJvcgs" version="24.4.0" type="device">
  <diagram name="Trang-1" id="JkNiVS4Iy5yac-pXt5lX">
    <mxGraphModel dx="834" dy="346" grid="1" gridSize="10" guides="1" tooltips="1" connect="1" arrows="1" fold="1" page="1" pageScale="1" pageWidth="827" pageHeight="1169" math="0" shadow="0">
      <root>
        <mxCell id="0" />
        <mxCell id="1" parent="0" />
        <mxCell id="ve-AwsYv88F3tAlq6MvQ-1" value="A" style="ellipse;whiteSpace=wrap;html=1;aspect=fixed;" vertex="1" parent="1">
          <mxGeometry x="380" y="250" width="30" height="30" as="geometry" />
        </mxCell>
        <mxCell id="ve-AwsYv88F3tAlq6MvQ-2" value="D" style="ellipse;whiteSpace=wrap;html=1;aspect=fixed;" vertex="1" parent="1">
          <mxGeometry x="340" y="330" width="30" height="30" as="geometry" />
        </mxCell>
        <mxCell id="ve-AwsYv88F3tAlq6MvQ-3" value="E" style="ellipse;whiteSpace=wrap;html=1;aspect=fixed;" vertex="1" parent="1">
          <mxGeometry x="430" y="310" width="30" height="30" as="geometry" />
        </mxCell>
        <mxCell id="ve-AwsYv88F3tAlq6MvQ-4" value="F" style="ellipse;whiteSpace=wrap;html=1;aspect=fixed;" vertex="1" parent="1">
          <mxGeometry x="490" y="280" width="30" height="30" as="geometry" />
        </mxCell>
        <mxCell id="ve-AwsYv88F3tAlq6MvQ-5" value="C" style="ellipse;whiteSpace=wrap;html=1;aspect=fixed;" vertex="1" parent="1">
          <mxGeometry x="260" y="290" width="30" height="30" as="geometry" />
        </mxCell>
        <mxCell id="ve-AwsYv88F3tAlq6MvQ-6" value="E" style="ellipse;whiteSpace=wrap;html=1;aspect=fixed;" vertex="1" parent="1">
          <mxGeometry x="370" y="390" width="30" height="30" as="geometry" />
        </mxCell>
        <mxCell id="ve-AwsYv88F3tAlq6MvQ-7" value="H" style="ellipse;whiteSpace=wrap;html=1;aspect=fixed;" vertex="1" parent="1">
          <mxGeometry x="310" y="390" width="30" height="30" as="geometry" />
        </mxCell>
        <mxCell id="ve-AwsYv88F3tAlq6MvQ-8" value="K" style="ellipse;whiteSpace=wrap;html=1;aspect=fixed;" vertex="1" parent="1">
          <mxGeometry x="340" y="470" width="30" height="30" as="geometry" />
        </mxCell>
        <mxCell id="ve-AwsYv88F3tAlq6MvQ-9" value="I" style="ellipse;whiteSpace=wrap;html=1;aspect=fixed;" vertex="1" parent="1">
          <mxGeometry x="414" y="470" width="30" height="30" as="geometry" />
        </mxCell>
        <mxCell id="ve-AwsYv88F3tAlq6MvQ-10" value="B" style="ellipse;whiteSpace=wrap;html=1;aspect=fixed;" vertex="1" parent="1">
          <mxGeometry x="340" y="540" width="30" height="30" as="geometry" />
        </mxCell>
        <mxCell id="ve-AwsYv88F3tAlq6MvQ-11" value="K" style="ellipse;whiteSpace=wrap;html=1;aspect=fixed;" vertex="1" parent="1">
          <mxGeometry x="383" y="540" width="30" height="30" as="geometry" />
        </mxCell>
        <mxCell id="ve-AwsYv88F3tAlq6MvQ-12" value="B" style="ellipse;whiteSpace=wrap;html=1;aspect=fixed;" vertex="1" parent="1">
          <mxGeometry x="444" y="540" width="30" height="30" as="geometry" />
        </mxCell>
        <mxCell id="ve-AwsYv88F3tAlq6MvQ-13" value="" style="endArrow=classic;html=1;rounded=0;entryX=1;entryY=0;entryDx=0;entryDy=0;exitX=0.264;exitY=0.945;exitDx=0;exitDy=0;exitPerimeter=0;" edge="1" parent="1" source="ve-AwsYv88F3tAlq6MvQ-1" target="ve-AwsYv88F3tAlq6MvQ-2">
          <mxGeometry width="50" height="50" relative="1" as="geometry">
            <mxPoint x="380" y="380" as="sourcePoint" />
            <mxPoint x="430" y="330" as="targetPoint" />
          </mxGeometry>
        </mxCell>
        <mxCell id="ve-AwsYv88F3tAlq6MvQ-14" value="" style="endArrow=classic;html=1;rounded=0;exitX=0.021;exitY=0.666;exitDx=0;exitDy=0;exitPerimeter=0;" edge="1" parent="1" source="ve-AwsYv88F3tAlq6MvQ-1">
          <mxGeometry width="50" height="50" relative="1" as="geometry">
            <mxPoint x="380" y="380" as="sourcePoint" />
            <mxPoint x="290" y="300" as="targetPoint" />
          </mxGeometry>
        </mxCell>
        <mxCell id="ve-AwsYv88F3tAlq6MvQ-15" value="" style="endArrow=classic;html=1;rounded=0;entryX=0.23;entryY=0.084;entryDx=0;entryDy=0;entryPerimeter=0;exitX=1;exitY=1;exitDx=0;exitDy=0;" edge="1" parent="1" source="ve-AwsYv88F3tAlq6MvQ-1" target="ve-AwsYv88F3tAlq6MvQ-3">
          <mxGeometry width="50" height="50" relative="1" as="geometry">
            <mxPoint x="340" y="330" as="sourcePoint" />
            <mxPoint x="390" y="280" as="targetPoint" />
          </mxGeometry>
        </mxCell>
        <mxCell id="ve-AwsYv88F3tAlq6MvQ-16" value="" style="endArrow=classic;html=1;rounded=0;entryX=-0.008;entryY=0.369;entryDx=0;entryDy=0;entryPerimeter=0;exitX=0.995;exitY=0.588;exitDx=0;exitDy=0;exitPerimeter=0;" edge="1" parent="1" source="ve-AwsYv88F3tAlq6MvQ-1" target="ve-AwsYv88F3tAlq6MvQ-4">
          <mxGeometry width="50" height="50" relative="1" as="geometry">
            <mxPoint x="411" y="268" as="sourcePoint" />
            <mxPoint x="470" y="300" as="targetPoint" />
          </mxGeometry>
        </mxCell>
        <mxCell id="ve-AwsYv88F3tAlq6MvQ-17" value="" style="endArrow=classic;html=1;rounded=0;entryX=0.72;entryY=0.04;entryDx=0;entryDy=0;entryPerimeter=0;exitX=0.31;exitY=0.98;exitDx=0;exitDy=0;exitPerimeter=0;" edge="1" parent="1" source="ve-AwsYv88F3tAlq6MvQ-2" target="ve-AwsYv88F3tAlq6MvQ-7">
          <mxGeometry width="50" height="50" relative="1" as="geometry">
            <mxPoint x="380" y="390" as="sourcePoint" />
            <mxPoint x="430" y="340" as="targetPoint" />
          </mxGeometry>
        </mxCell>
        <mxCell id="ve-AwsYv88F3tAlq6MvQ-18" value="" style="endArrow=classic;html=1;rounded=0;exitX=0.806;exitY=0.892;exitDx=0;exitDy=0;exitPerimeter=0;entryX=0.258;entryY=0.084;entryDx=0;entryDy=0;entryPerimeter=0;" edge="1" parent="1" source="ve-AwsYv88F3tAlq6MvQ-2" target="ve-AwsYv88F3tAlq6MvQ-6">
          <mxGeometry width="50" height="50" relative="1" as="geometry">
            <mxPoint x="365" y="358" as="sourcePoint" />
            <mxPoint x="350" y="380" as="targetPoint" />
          </mxGeometry>
        </mxCell>
        <mxCell id="ve-AwsYv88F3tAlq6MvQ-19" value="" style="endArrow=classic;html=1;rounded=0;entryX=0.754;entryY=0.061;entryDx=0;entryDy=0;entryPerimeter=0;exitX=0.179;exitY=0.896;exitDx=0;exitDy=0;exitPerimeter=0;" edge="1" parent="1" source="ve-AwsYv88F3tAlq6MvQ-6" target="ve-AwsYv88F3tAlq6MvQ-8">
          <mxGeometry width="50" height="50" relative="1" as="geometry">
            <mxPoint x="350" y="430" as="sourcePoint" />
            <mxPoint x="400" y="380" as="targetPoint" />
          </mxGeometry>
        </mxCell>
        <mxCell id="ve-AwsYv88F3tAlq6MvQ-20" value="" style="endArrow=classic;html=1;rounded=0;entryX=0.26;entryY=0.054;entryDx=0;entryDy=0;entryPerimeter=0;exitX=0.772;exitY=0.934;exitDx=0;exitDy=0;exitPerimeter=0;" edge="1" parent="1" source="ve-AwsYv88F3tAlq6MvQ-6" target="ve-AwsYv88F3tAlq6MvQ-9">
          <mxGeometry width="50" height="50" relative="1" as="geometry">
            <mxPoint x="360" y="470" as="sourcePoint" />
            <mxPoint x="410" y="420" as="targetPoint" />
          </mxGeometry>
        </mxCell>
        <mxCell id="ve-AwsYv88F3tAlq6MvQ-21" value="" style="endArrow=classic;html=1;rounded=0;entryX=0.5;entryY=0;entryDx=0;entryDy=0;exitX=0.5;exitY=1;exitDx=0;exitDy=0;" edge="1" parent="1" source="ve-AwsYv88F3tAlq6MvQ-8" target="ve-AwsYv88F3tAlq6MvQ-10">
          <mxGeometry width="50" height="50" relative="1" as="geometry">
            <mxPoint x="260" y="530" as="sourcePoint" />
            <mxPoint x="310" y="480" as="targetPoint" />
          </mxGeometry>
        </mxCell>
        <mxCell id="ve-AwsYv88F3tAlq6MvQ-22" value="" style="endArrow=classic;html=1;rounded=0;entryX=0.709;entryY=0.066;entryDx=0;entryDy=0;entryPerimeter=0;exitX=0.247;exitY=0.944;exitDx=0;exitDy=0;exitPerimeter=0;" edge="1" parent="1" source="ve-AwsYv88F3tAlq6MvQ-9" target="ve-AwsYv88F3tAlq6MvQ-11">
          <mxGeometry width="50" height="50" relative="1" as="geometry">
            <mxPoint x="410" y="550" as="sourcePoint" />
            <mxPoint x="460" y="500" as="targetPoint" />
          </mxGeometry>
        </mxCell>
        <mxCell id="ve-AwsYv88F3tAlq6MvQ-23" value="" style="endArrow=classic;html=1;rounded=0;entryX=0.376;entryY=0.022;entryDx=0;entryDy=0;entryPerimeter=0;exitX=0.799;exitY=0.881;exitDx=0;exitDy=0;exitPerimeter=0;" edge="1" parent="1" source="ve-AwsYv88F3tAlq6MvQ-9" target="ve-AwsYv88F3tAlq6MvQ-12">
          <mxGeometry width="50" height="50" relative="1" as="geometry">
            <mxPoint x="410" y="550" as="sourcePoint" />
            <mxPoint x="460" y="500" as="targetPoint" />
          </mxGeometry>
        </mxCell>
        <mxCell id="ve-AwsYv88F3tAlq6MvQ-25" value="14" style="text;html=1;align=center;verticalAlign=middle;resizable=0;points=[];autosize=1;strokeColor=none;fillColor=none;" vertex="1" parent="1">
          <mxGeometry x="394" y="238" width="40" height="30" as="geometry" />
        </mxCell>
        <mxCell id="ve-AwsYv88F3tAlq6MvQ-26" value="27" style="text;html=1;align=center;verticalAlign=middle;resizable=0;points=[];autosize=1;strokeColor=none;fillColor=none;" vertex="1" parent="1">
          <mxGeometry x="510" y="268" width="40" height="30" as="geometry" />
        </mxCell>
        <mxCell id="ve-AwsYv88F3tAlq6MvQ-27" value="21" style="text;html=1;align=center;verticalAlign=middle;resizable=0;points=[];autosize=1;strokeColor=none;fillColor=none;" vertex="1" parent="1">
          <mxGeometry x="450" y="308" width="40" height="30" as="geometry" />
        </mxCell>
        <mxCell id="ve-AwsYv88F3tAlq6MvQ-28" value="13" style="text;html=1;align=center;verticalAlign=middle;resizable=0;points=[];autosize=1;strokeColor=none;fillColor=none;" vertex="1" parent="1">
          <mxGeometry x="300" y="328" width="40" height="30" as="geometry" />
        </mxCell>
        <mxCell id="ve-AwsYv88F3tAlq6MvQ-29" value="24" style="text;html=1;align=center;verticalAlign=middle;resizable=0;points=[];autosize=1;strokeColor=none;fillColor=none;" vertex="1" parent="1">
          <mxGeometry x="230" y="278" width="40" height="30" as="geometry" />
        </mxCell>
        <mxCell id="ve-AwsYv88F3tAlq6MvQ-30" value="25" style="text;html=1;align=center;verticalAlign=middle;resizable=0;points=[];autosize=1;strokeColor=none;fillColor=none;" vertex="1" parent="1">
          <mxGeometry x="280" y="388" width="40" height="30" as="geometry" />
        </mxCell>
        <mxCell id="ve-AwsYv88F3tAlq6MvQ-31" value="19" style="text;html=1;align=center;verticalAlign=middle;resizable=0;points=[];autosize=1;strokeColor=none;fillColor=none;" vertex="1" parent="1">
          <mxGeometry x="394" y="388" width="40" height="30" as="geometry" />
        </mxCell>
        <mxCell id="ve-AwsYv88F3tAlq6MvQ-32" value="17" style="text;html=1;align=center;verticalAlign=middle;resizable=0;points=[];autosize=1;strokeColor=none;fillColor=none;" vertex="1" parent="1">
          <mxGeometry x="300" y="458" width="40" height="30" as="geometry" />
        </mxCell>
        <mxCell id="ve-AwsYv88F3tAlq6MvQ-33" value="18" style="text;html=1;align=center;verticalAlign=middle;resizable=0;points=[];autosize=1;strokeColor=none;fillColor=none;" vertex="1" parent="1">
          <mxGeometry x="430" y="458" width="40" height="30" as="geometry" />
        </mxCell>
        <mxCell id="ve-AwsYv88F3tAlq6MvQ-35" value="21" style="text;html=1;align=center;verticalAlign=middle;resizable=0;points=[];autosize=1;strokeColor=none;fillColor=none;" vertex="1" parent="1">
          <mxGeometry x="310" y="540" width="40" height="30" as="geometry" />
        </mxCell>
        <mxCell id="ve-AwsYv88F3tAlq6MvQ-36" value="25" style="text;html=1;align=center;verticalAlign=middle;resizable=0;points=[];autosize=1;strokeColor=none;fillColor=none;" vertex="1" parent="1">
          <mxGeometry x="404" y="540" width="40" height="30" as="geometry" />
        </mxCell>
        <mxCell id="ve-AwsYv88F3tAlq6MvQ-37" value="19" style="text;html=1;align=center;verticalAlign=middle;resizable=0;points=[];autosize=1;strokeColor=none;fillColor=none;" vertex="1" parent="1">
          <mxGeometry x="470" y="538" width="40" height="30" as="geometry" />
        </mxCell>
      </root>
    </mxGraphModel>
  </diagram>
</mxfile>
